<svg width="18" height="19" viewBox="0 0 18 19" fill="none" xmlns="http://www.w3.org/2000/svg">
<path d="M12.4807 3.3125L12.357 3.6815L11.268 6.6875H11.25V6.72294L10.7224 8.1815L10.6875 8.26925V8.9375H11.8125V8.46275L12.0409 7.8125H13.8341L14.0625 8.46275V8.9375H15.1875V8.26925L15.1521 8.1815L14.625 6.72238V6.6875H14.6081L13.5169 3.6815L13.3954 3.3125H12.4791H12.4807ZM5.25 3.3125V13.8245L3.79088 12.3654L3 13.1562L5.4075 15.5823L5.8125 15.9688L6.2175 15.5818L8.625 13.1562L7.83412 12.3654L6.375 13.8239V3.3125H5.25ZM12.9375 5.369L13.4122 6.6875H12.4628L12.9375 5.369ZM10.6875 10.0625V11.1875H13.8167L10.845 14.1575L10.6875 14.3341V15.6875H15.1875V14.5625H12.0583L15.0294 11.5925L15.1869 11.4159V10.0625H10.6875Z" fill="#757575"/>
</svg>
