<svg width="21" height="21" viewBox="0 0 21 21" fill="none" xmlns="http://www.w3.org/2000/svg">
<path d="M16.5675 15.6829C16.6256 15.741 16.6717 15.8099 16.7031 15.8858C16.7345 15.9617 16.7507 16.043 16.7507 16.1251C16.7507 16.2072 16.7345 16.2885 16.7031 16.3644C16.6717 16.4403 16.6256 16.5092 16.5675 16.5673C16.5095 16.6254 16.4405 16.6714 16.3647 16.7028C16.2888 16.7343 16.2075 16.7505 16.1253 16.7505C16.0432 16.7505 15.9619 16.7343 15.886 16.7028C15.8102 16.6714 15.7412 16.6254 15.6832 16.5673L10.5003 11.3837L5.31753 16.5673C5.20026 16.6846 5.0412 16.7505 4.87535 16.7505C4.7095 16.7505 4.55044 16.6846 4.43316 16.5673C4.31588 16.45 4.25 16.291 4.25 16.1251C4.25 15.9593 4.31588 15.8002 4.43316 15.6829L9.61675 10.5001L4.43316 5.31729C4.31588 5.20002 4.25 5.04096 4.25 4.8751C4.25 4.70925 4.31588 4.55019 4.43316 4.43292C4.55044 4.31564 4.7095 4.24976 4.87535 4.24976C5.0412 4.24976 5.20026 4.31564 5.31753 4.43292L10.5003 9.61651L15.6832 4.43292C15.8004 4.31564 15.9595 4.24976 16.1253 4.24976C16.2912 4.24976 16.4503 4.31564 16.5675 4.43292C16.6848 4.55019 16.7507 4.70925 16.7507 4.8751C16.7507 5.04096 16.6848 5.20002 16.5675 5.31729L11.3839 10.5001L16.5675 15.6829Z" fill="#212121"/>
</svg>
