<svg width="33" height="34" viewBox="0 0 33 34" fill="none" xmlns="http://www.w3.org/2000/svg">
<path d="M0 16.626C0 7.51328 7.3873 0.125977 16.5 0.125977C25.6127 0.125977 33 7.51328 33 16.626C33 25.7387 25.6127 33.126 16.5 33.126C7.3873 33.126 0 25.7387 0 16.626Z" fill="#EBEBEB"/>
<path d="M13.77 10.126H19.23C21.31 10.126 23 11.816 23 13.896V19.356C23 20.3558 22.6028 21.3148 21.8958 22.0218C21.1888 22.7288 20.2299 23.126 19.23 23.126H13.77C11.69 23.126 10 21.436 10 19.356V13.896C10 12.8961 10.3972 11.9372 11.1042 11.2302C11.8112 10.5232 12.7701 10.126 13.77 10.126ZM13.64 11.426C13.0194 11.426 12.4242 11.6725 11.9854 12.1113C11.5465 12.5502 11.3 13.1454 11.3 13.766V19.486C11.3 20.7795 12.3465 21.826 13.64 21.826H19.36C19.9806 21.826 20.5758 21.5794 21.0146 21.1406C21.4535 20.7018 21.7 20.1066 21.7 19.486V13.766C21.7 12.4725 20.6535 11.426 19.36 11.426H13.64ZM19.9125 12.401C20.128 12.401 20.3347 12.4866 20.487 12.639C20.6394 12.7913 20.725 12.998 20.725 13.2135C20.725 13.429 20.6394 13.6356 20.487 13.788C20.3347 13.9404 20.128 14.026 19.9125 14.026C19.697 14.026 19.4903 13.9404 19.338 13.788C19.1856 13.6356 19.1 13.429 19.1 13.2135C19.1 12.998 19.1856 12.7913 19.338 12.639C19.4903 12.4866 19.697 12.401 19.9125 12.401ZM16.5 13.376C17.362 13.376 18.1886 13.7184 18.7981 14.3279C19.4076 14.9374 19.75 15.764 19.75 16.626C19.75 17.4879 19.4076 18.3146 18.7981 18.9241C18.1886 19.5336 17.362 19.876 16.5 19.876C15.638 19.876 14.8114 19.5336 14.2019 18.9241C13.5924 18.3146 13.25 17.4879 13.25 16.626C13.25 15.764 13.5924 14.9374 14.2019 14.3279C14.8114 13.7184 15.638 13.376 16.5 13.376ZM16.5 14.676C15.9828 14.676 15.4868 14.8814 15.1211 15.2471C14.7554 15.6128 14.55 16.1088 14.55 16.626C14.55 17.1431 14.7554 17.6391 15.1211 18.0048C15.4868 18.3705 15.9828 18.576 16.5 18.576C17.0172 18.576 17.5132 18.3705 17.8789 18.0048C18.2446 17.6391 18.45 17.1431 18.45 16.626C18.45 16.1088 18.2446 15.6128 17.8789 15.2471C17.5132 14.8814 17.0172 14.676 16.5 14.676Z" fill="black"/>
</svg>
