<svg width="33" height="34" viewBox="0 0 33 34" fill="none" xmlns="http://www.w3.org/2000/svg">
<path d="M0 16.626C0 7.51328 7.3873 0.125977 16.5 0.125977C25.6127 0.125977 33 7.51328 33 16.626C33 25.7387 25.6127 33.126 16.5 33.126C7.3873 33.126 0 25.7387 0 16.626Z" fill="#EBEBEB"/>
<path d="M12.7282 11.5711C12.728 11.9541 12.5842 12.3214 12.3282 12.5922C12.0723 12.8629 11.7252 13.0149 11.3634 13.0147C11.0016 13.0145 10.6548 12.8622 10.3991 12.5912C10.1434 12.3201 9.99982 11.9527 10 11.5696C10.0002 11.1865 10.1441 10.8192 10.4 10.5485C10.656 10.2778 11.003 10.1258 11.3648 10.126C11.7266 10.1262 12.0735 10.2785 12.3292 10.5495C12.5849 10.8205 12.7284 11.188 12.7282 11.5711ZM12.7692 14.0843H10.0409V23.126H12.7692V14.0843ZM17.0797 14.0843H14.3652V23.126H17.0525V18.3812C17.0525 15.7381 20.3059 15.4925 20.3059 18.3812V23.126H23V17.3991C23 12.9432 18.1847 13.1093 17.0525 15.2975L17.0797 14.0843Z" fill="black"/>
</svg>
