<svg width="133" height="64" viewBox="0 0 133 64" fill="none" xmlns="http://www.w3.org/2000/svg">
<g clip-path="url(#clip0_2194_3380)">
<path d="M24.4297 17.9517H0.990967V21.2647H24.4297V17.9517Z" fill="#212121"/>
<path d="M27.6343 0.225586H0.990967V3.53859H27.6343V0.225586Z" fill="#212121"/>
<path d="M28.1607 35.6938H0.990967V39.0068H28.1607V35.6938Z" fill="#212121"/>
<path d="M56.9397 17.9517H33.501V21.2647H56.9397V17.9517Z" fill="#212121"/>
<path d="M60.1443 0.225586H33.501V3.53859H60.1443V0.225586Z" fill="#212121"/>
<path d="M60.6707 35.6938H33.501V39.0068H60.6707V35.6938Z" fill="#212121"/>
<path d="M64.8516 39.0063H68.1491V21.2647H90.3183V17.9517H64.8516V39.0063Z" fill="#212121"/>
<path d="M92.9811 0.225586H64.8516V3.53859H92.9811V0.225586Z" fill="#212121"/>
<path d="M114.964 5.02479L129.455 39.0063H133L116.466 0.225586H113.401L96.8667 39.0063H100.474L114.964 5.02479Z" fill="#212121"/>
<path d="M7.10592 46.4839L0 63.1263H2.22931L7.9574 49.673L13.701 63.1263H15.9148L8.80887 46.4839H7.10592Z" fill="#212121"/>
<path d="M25.4665 59.2713C24.8008 57.7696 24.3053 56.7479 23.9028 56.0976C23.748 55.8654 23.6087 55.6642 23.4539 55.4784C24.0576 55.2462 24.584 54.8901 25.0485 54.4102C25.7451 53.6516 26.1012 52.5679 26.1012 51.1591C26.1012 49.4871 25.5903 48.2641 24.584 47.5055C23.6397 46.8089 22.3392 46.4683 20.7292 46.4683H15.5274V48.5118H20.7292C21.8593 48.5118 22.7263 48.7131 23.2991 49.1001C23.7945 49.4716 24.0576 50.1683 24.0576 51.1591C24.0576 52.1499 23.8099 52.8156 23.33 53.1562C22.7572 53.5587 21.9212 53.76 20.8375 53.76H15.512V55.8035H19.7848C20.4815 55.8035 21.0388 55.9738 21.4723 56.2989C21.9212 56.6395 22.5405 57.6922 23.3145 59.4416C23.9493 60.8504 24.3828 61.8257 24.615 62.3831L24.9246 63.0952H27.1849L26.6895 62.1044C26.4882 61.64 26.0702 60.6801 25.4355 59.2403L25.4665 59.2713Z" fill="#212121"/>
<path d="M34.9571 48.5274C36.6136 48.5274 37.9295 49.1157 38.8739 50.2768L39.2454 50.7258L40.8245 49.4408L40.453 48.9919C39.1216 47.3818 37.1709 46.4839 34.9571 46.4839C29.8792 46.4839 27.5725 50.8032 27.5725 54.7974C27.5725 58.7915 29.8792 63.1108 34.9571 63.1108C37.1709 63.1108 39.1216 62.2129 40.453 60.6028L40.8245 60.1539L39.2454 58.8689L38.8739 59.3179C37.9295 60.479 36.6136 61.0673 34.9571 61.0673C31.706 61.0673 29.616 58.6058 29.616 54.7974C29.616 50.989 31.706 48.5274 34.9571 48.5274Z" fill="#212121"/>
<path d="M54.0767 53.7756H44.695V46.4839H42.667V63.1108H44.695V55.8191H54.0767V63.1108H56.1048V46.4839H54.0767V53.7756Z" fill="#212121"/>
<path d="M60.1912 46.4839H58.1477V63.1263H60.1912V46.4839Z" fill="#212121"/>
<path d="M61.9714 48.5274H68.102V63.1108H70.1456V48.5274H76.2917V46.4839H61.9714V48.5274Z" fill="#212121"/>
<path d="M88.3983 53.7754H78.0723V55.8189H88.3983V53.7754Z" fill="#212121"/>
<path d="M89.931 61.0674H78.0723V63.1109H89.931V61.0674Z" fill="#212121"/>
<path d="M89.7142 46.4839H78.0723V48.5274H89.7142V46.4839Z" fill="#212121"/>
<path d="M98.3367 48.5274C99.9932 48.5274 101.309 49.1157 102.254 50.2768L102.625 50.7258L104.204 49.4408L103.833 48.9919C102.501 47.3818 100.551 46.4839 98.3367 46.4839C93.2743 46.4839 90.9521 50.8032 90.9521 54.7974C90.9521 58.7915 93.2589 63.1108 98.3367 63.1108C100.551 63.1108 102.501 62.2129 103.833 60.6028L104.204 60.1539L102.625 58.8689L102.254 59.3179C101.309 60.479 99.9932 61.0673 98.3367 61.0673C95.0857 61.0673 92.9957 58.6058 92.9957 54.7974C92.9957 50.989 95.0857 48.5274 98.3367 48.5274Z" fill="#212121"/>
<path d="M105.458 48.5274H111.605V63.1108H113.633V48.5274H119.779V46.4839H105.458V48.5274Z" fill="#212121"/>
<path d="M128.418 54.1934L126.266 53.3265C123.541 52.2273 122.984 51.4687 122.984 50.5863C122.984 49.3633 124.501 48.5118 126.653 48.5118C128.247 48.5118 129.95 49.1775 130.693 50.0909L131.065 50.5398L132.644 49.2549L132.288 48.8059C131.142 47.3662 128.975 46.4683 126.653 46.4683C123.293 46.4683 120.94 48.1557 120.94 50.5863C120.94 53.0169 123.123 54.2708 125.492 55.2152L127.644 56.0822C129.888 56.9646 130.647 57.6613 130.647 58.8378C130.647 60.1847 129.114 61.0671 126.73 61.0671C123.696 61.0671 122.148 59.519 121.977 59.3487L121.544 58.8998L120.12 60.4479L120.445 60.8349C121.095 61.6245 123.247 63.1107 126.73 63.1107C130.213 63.1107 132.69 61.3923 132.69 58.8378C132.69 56.2834 130.631 55.0759 128.402 54.1934H128.418Z" fill="#212121"/>
</g>
<defs>
<clipPath id="clip0_2194_3380">
<rect width="133" height="62.9006" fill="white" transform="translate(0 0.225586)"/>
</clipPath>
</defs>
</svg>
