<svg width="96" height="46" viewBox="0 0 96 46" fill="none" xmlns="http://www.w3.org/2000/svg">
<g clip-path="url(#clip0_2194_192)">
<path d="M17.6251 12.7888H0.714844V15.179H17.6251V12.7888Z" fill="white"/>
<path d="M19.9371 0H0.714844V2.39022H19.9371V0Z" fill="white"/>
<path d="M20.3169 25.5889H0.714844V27.9791H20.3169V25.5889Z" fill="white"/>
<path d="M41.0802 12.7888H24.1699V15.179H41.0802V12.7888Z" fill="white"/>
<path d="M43.3922 0H24.1699V2.39022H43.3922V0Z" fill="white"/>
<path d="M43.772 25.5889H24.1699V27.9791H43.772V25.5889Z" fill="white"/>
<path d="M46.7881 27.979H49.1671V15.179H65.1615V12.7888H46.7881V27.979Z" fill="white"/>
<path d="M67.0826 0H46.7881V2.39022H67.0826V0Z" fill="white"/>
<path d="M82.9426 3.46247L93.397 27.979H95.9548L84.026 0H81.8145L69.8857 27.979H72.4882L82.9426 3.46247Z" fill="white"/>
<path d="M5.12669 33.3738L0 45.3807H1.60837L5.741 35.6746L9.88479 45.3807H11.482L6.35531 33.3738H5.12669Z" fill="white"/>
<path d="M18.3732 42.5995C17.893 41.5161 17.5355 40.7789 17.2451 40.3098C17.1334 40.1423 17.0329 39.9971 16.9212 39.8631C17.3568 39.6955 17.7366 39.4386 18.0717 39.0924C18.5743 38.5451 18.8312 37.7632 18.8312 36.7468C18.8312 35.5406 18.4626 34.6582 17.7366 34.1109C17.0553 33.6083 16.117 33.3625 14.9554 33.3625H11.2026V34.8369H14.9554C15.7708 34.8369 16.3963 34.9821 16.8095 35.2613C17.167 35.5294 17.3568 36.032 17.3568 36.7468C17.3568 37.4617 17.1781 37.9419 16.8319 38.1877C16.4186 38.4781 15.8155 38.6233 15.0336 38.6233H11.1914V40.0976H14.2741C14.7767 40.0976 15.1788 40.2205 15.4916 40.455C15.8155 40.7007 16.2622 41.4603 16.8207 42.7224C17.2787 43.7388 17.5914 44.4425 17.7589 44.8445L17.9823 45.3583H19.613L19.2556 44.6435C19.1104 44.3084 18.8088 43.6159 18.3509 42.5772L18.3732 42.5995Z" fill="white"/>
<path d="M25.2203 34.8481C26.4154 34.8481 27.3648 35.2726 28.0461 36.1102L28.3142 36.4342L29.4535 35.5071L29.1854 35.1832C28.2248 34.0216 26.8175 33.3738 25.2203 33.3738C21.5568 33.3738 19.8926 36.49 19.8926 39.3717C19.8926 42.2533 21.5568 45.3696 25.2203 45.3696C26.8175 45.3696 28.2248 44.7217 29.1854 43.5601L29.4535 43.2362L28.3142 42.3092L28.0461 42.6331C27.3648 43.4708 26.4154 43.8952 25.2203 43.8952C22.8748 43.8952 21.3669 42.1193 21.3669 39.3717C21.3669 36.624 22.8748 34.8481 25.2203 34.8481Z" fill="white"/>
<path d="M39.014 38.6345H32.2454V33.3738H30.7822V45.3696H32.2454V40.1088H39.014V45.3696H40.4771V33.3738H39.014V38.6345Z" fill="white"/>
<path d="M43.4265 33.3738H41.9521V45.3807H43.4265V33.3738Z" fill="white"/>
<path d="M44.7109 34.8481H49.134V45.3696H50.6083V34.8481H55.0425V33.3738H44.7109V34.8481Z" fill="white"/>
<path d="M63.7761 38.6344H56.3262V40.1087H63.7761V38.6344Z" fill="white"/>
<path d="M64.8818 43.8953H56.3262V45.3696H64.8818V43.8953Z" fill="white"/>
<path d="M64.7255 33.3738H56.3262V34.8481H64.7255V33.3738Z" fill="white"/>
<path d="M70.9469 34.8481C72.142 34.8481 73.0914 35.2726 73.7727 36.1102L74.0408 36.4342L75.18 35.5071L74.912 35.1832C73.9514 34.0216 72.5441 33.3738 70.9469 33.3738C67.2945 33.3738 65.6191 36.49 65.6191 39.3717C65.6191 42.2533 67.2834 45.3696 70.9469 45.3696C72.5441 45.3696 73.9514 44.7217 74.912 43.5601L75.18 43.2362L74.0408 42.3092L73.7727 42.6331C73.0914 43.4708 72.142 43.8952 70.9469 43.8952C68.6013 43.8952 67.0935 42.1193 67.0935 39.3717C67.0935 36.624 68.6013 34.8481 70.9469 34.8481Z" fill="white"/>
<path d="M76.085 34.8481H80.5191V45.3696H81.9823V34.8481H86.4165V33.3738H76.085V34.8481Z" fill="white"/>
<path d="M92.6488 38.936L91.0963 38.3105C89.1305 37.5175 88.7284 36.9702 88.7284 36.3336C88.7284 35.4512 89.823 34.8369 91.3755 34.8369C92.526 34.8369 93.7546 35.3172 94.2907 35.9762L94.5588 36.3001L95.698 35.373L95.4411 35.0491C94.6146 34.0104 93.0509 33.3625 91.3755 33.3625C88.9518 33.3625 87.2541 34.58 87.2541 36.3336C87.2541 38.0871 88.8289 38.9919 90.5378 39.6732L92.0904 40.2987C93.7099 40.9353 94.2572 41.4379 94.2572 42.2868C94.2572 43.2585 93.1515 43.8952 91.4314 43.8952C89.2422 43.8952 88.1253 42.7782 88.0024 42.6554L87.6897 42.3315L86.6621 43.4484L86.8967 43.7276C87.3658 44.2973 88.9183 45.3695 91.4314 45.3695C93.9445 45.3695 95.7315 44.1297 95.7315 42.2868C95.7315 40.4439 94.246 39.5727 92.6377 38.936H92.6488Z" fill="white"/>
</g>
<defs>
<clipPath id="clip0_2194_192">
<rect width="95.9551" height="45.3807" fill="white"/>
</clipPath>
</defs>
</svg>
