<svg width="35" height="35" viewBox="0 0 35 35" fill="none" xmlns="http://www.w3.org/2000/svg">
<path d="M26.6386 10.8916C27.2224 10.3312 27.2224 9.39755 26.6386 8.83711C26.0875 8.30811 25.2173 8.30811 24.6662 8.83711L17.5003 15.7164L10.3344 8.83711C9.78338 8.30811 8.9131 8.30811 8.36206 8.83711C7.77828 9.39755 7.77828 10.3312 8.36206 10.8916L15.4441 17.6904L8.36206 24.4891C7.77828 25.0495 7.77828 25.9832 8.36206 26.5436C8.9131 27.0726 9.78338 27.0726 10.3344 26.5436L17.5003 19.6644L24.6662 26.5436C25.2173 27.0726 26.0875 27.0726 26.6386 26.5436C27.2224 25.9832 27.2224 25.0495 26.6386 24.4891L19.5566 17.6904L26.6386 10.8916Z" fill="#212121"/>
</svg>
