<svg width="278" height="121" viewBox="0 0 278 121" fill="none" xmlns="http://www.w3.org/2000/svg">
<g clip-path="url(#clip0_2194_407)">
<path d="M83.3277 23.457H52.311V27.8412H83.3277V23.457Z" fill="#212121"/>
<path d="M87.5684 0H52.311V4.38412H87.5684V0Z" fill="#212121"/>
<path d="M88.2649 46.9348H52.311V51.3189H88.2649V46.9348Z" fill="#212121"/>
<path d="M126.349 23.457H95.332V27.8412H126.349V23.457Z" fill="#212121"/>
<path d="M130.589 0H95.332V4.38412H130.589V0Z" fill="#212121"/>
<path d="M131.286 46.9348H95.332V51.3189H131.286V46.9348Z" fill="#212121"/>
<path d="M136.818 51.3187H141.182V27.8412H170.519V23.457H136.818V51.3187Z" fill="#212121"/>
<path d="M174.042 0H136.818V4.38412H174.042V0Z" fill="#212121"/>
<path d="M203.133 6.35083L222.309 51.3188H227L205.121 0H201.064L179.185 51.3188H183.958L203.133 6.35083Z" fill="#212121"/>
<path d="M60.4033 61.2139L51 83.2369H53.9501L61.5301 65.4341L69.1306 83.2369H72.0602L62.6568 61.2139H60.4033Z" fill="#212121"/>
<path d="M84.7002 78.1357C83.8193 76.1485 83.1637 74.7964 82.6311 73.936C82.4262 73.6287 82.2418 73.3624 82.0369 73.1165C82.8359 72.8092 83.5325 72.338 84.1471 71.703C85.069 70.6991 85.5401 69.2651 85.5401 67.4008C85.5401 65.1882 84.8641 63.5698 83.5325 62.566C82.2828 61.6441 80.5619 61.1934 78.4313 61.1934H71.5478V63.8976H78.4313C79.9268 63.8976 81.0741 64.1639 81.8321 64.6761C82.4876 65.1677 82.8359 66.0896 82.8359 67.4008C82.8359 68.7119 82.5081 69.5928 81.8731 70.0435C81.1151 70.5762 80.0088 70.8425 78.5747 70.8425H71.5273V73.5468H77.1816C78.1035 73.5468 78.841 73.7721 79.4147 74.2023C80.0088 74.653 80.8282 76.0461 81.8526 78.3611C82.6925 80.2254 83.2661 81.516 83.5734 82.2535L83.9832 83.1959H86.9742L86.3186 81.8848C86.0523 81.2702 85.4992 80 84.6592 78.0948L84.7002 78.1357Z" fill="#212121"/>
<path d="M97.2589 63.9181C99.451 63.9181 101.192 64.6966 102.442 66.2331L102.934 66.8272L105.023 65.1268L104.532 64.5327C102.77 62.4021 100.188 61.2139 97.2589 61.2139C90.5393 61.2139 87.4868 66.9296 87.4868 72.2151C87.4868 77.5007 90.5393 83.2164 97.2589 83.2164C100.188 83.2164 102.77 82.0282 104.532 79.8976L105.023 79.3035L102.934 77.6031L102.442 78.1972C101.192 79.7337 99.451 80.5122 97.2589 80.5122C92.9567 80.5122 90.191 77.2548 90.191 72.2151C90.191 67.1755 92.9567 63.9181 97.2589 63.9181Z" fill="#212121"/>
<path d="M122.56 70.863H110.145V61.2139H107.461V83.2164H110.145V73.5673H122.56V83.2164H125.244V61.2139H122.56V70.863Z" fill="#212121"/>
<path d="M130.651 61.2139H127.947V83.2369H130.651V61.2139Z" fill="#212121"/>
<path d="M133.007 63.9181H141.12V83.2164H143.824V63.9181H151.957V61.2139H133.007V63.9181Z" fill="#212121"/>
<path d="M167.978 70.8628H154.314V73.567H167.978V70.8628Z" fill="#212121"/>
<path d="M170.007 80.5122H154.314V83.2164H170.007V80.5122Z" fill="#212121"/>
<path d="M169.72 61.2139H154.314V63.9181H169.72V61.2139Z" fill="#212121"/>
<path d="M181.13 63.9181C183.322 63.9181 185.063 64.6966 186.313 66.2331L186.805 66.8272L188.894 65.1268L188.403 64.5327C186.641 62.4021 184.06 61.2139 181.13 61.2139C174.431 61.2139 171.358 66.9296 171.358 72.2151C171.358 77.5007 174.41 83.2164 181.13 83.2164C184.06 83.2164 186.641 82.0282 188.403 79.8976L188.894 79.3035L186.805 77.6031L186.313 78.1972C185.063 79.7337 183.322 80.5122 181.13 80.5122C176.828 80.5122 174.062 77.2548 174.062 72.2151C174.062 67.1755 176.828 63.9181 181.13 63.9181Z" fill="#212121"/>
<path d="M190.554 63.9181H198.687V83.2164H201.371V63.9181H209.504V61.2139H190.554V63.9181Z" fill="#212121"/>
<path d="M220.936 71.4162L218.088 70.2689C214.483 68.8144 213.745 67.8105 213.745 66.6428C213.745 65.0243 215.753 63.8976 218.6 63.8976C220.711 63.8976 222.964 64.7785 223.947 65.9872L224.439 66.5813L226.529 64.8809L226.058 64.2868C224.542 62.3816 221.673 61.1934 218.6 61.1934C214.155 61.1934 211.041 63.4264 211.041 66.6428C211.041 69.8592 213.929 71.5186 217.064 72.7683L219.912 73.9155C222.882 75.0832 223.886 76.0051 223.886 77.5621C223.886 79.3444 221.858 80.5122 218.703 80.5122C214.687 80.5122 212.639 78.4635 212.413 78.2382L211.84 77.6441L209.955 79.6927L210.385 80.2049C211.246 81.2497 214.093 83.2164 218.703 83.2164C223.312 83.2164 226.59 80.9424 226.59 77.5621C226.59 74.1818 223.865 72.5839 220.915 71.4162H220.936Z" fill="#212121"/>
</g>
<path d="M4.80584 109.105H3.21684L3.20984 114.929H2.03384L2.04084 109.105H0.836844V107.929H2.04084L2.03384 105.731H3.20984L3.21684 107.929H4.80584V109.105ZM12.2487 110.575V114.929H11.0727V110.834C11.0727 110.48 10.9864 110.158 10.8137 109.868C10.641 109.579 10.41 109.35 10.1207 109.182C9.83137 109.01 9.50937 108.923 9.1547 108.923C8.8047 108.923 8.4827 109.01 8.1887 109.182C7.89937 109.35 7.66837 109.579 7.4957 109.868C7.32304 110.158 7.2367 110.48 7.2367 110.834V114.929H6.0607V104.429H7.2367V108.804C7.48404 108.478 7.7967 108.219 8.1747 108.027C8.5527 107.831 8.96337 107.733 9.4067 107.733C9.92937 107.733 10.4054 107.862 10.8347 108.118C11.2687 108.37 11.6117 108.711 11.8637 109.14C12.1204 109.57 12.2487 110.048 12.2487 110.575ZM16.5919 115.111C15.9479 115.111 15.3599 114.946 14.8279 114.614C14.3005 114.283 13.8782 113.84 13.5609 113.284C13.2482 112.724 13.0919 112.106 13.0919 111.429C13.0919 110.916 13.1829 110.438 13.3649 109.994C13.5469 109.546 13.7965 109.154 14.1139 108.818C14.4359 108.478 14.8092 108.212 15.2339 108.02C15.6585 107.829 16.1112 107.733 16.5919 107.733C17.1192 107.733 17.6022 107.841 18.0409 108.055C18.4842 108.265 18.8622 108.559 19.1749 108.937C19.4922 109.315 19.7279 109.754 19.8819 110.253C20.0405 110.753 20.0989 111.287 20.0569 111.856H14.3449C14.4009 112.253 14.5315 112.608 14.7369 112.92C14.9422 113.228 15.2035 113.473 15.5209 113.655C15.8429 113.837 16.1999 113.931 16.5919 113.935C17.0119 113.935 17.3922 113.828 17.7329 113.613C18.0735 113.394 18.3489 113.095 18.5589 112.717L19.7559 112.997C19.4759 113.618 19.0535 114.127 18.4889 114.523C17.9242 114.915 17.2919 115.111 16.5919 115.111ZM14.3099 110.932H18.8739C18.8365 110.54 18.7105 110.183 18.4959 109.861C18.2812 109.535 18.0082 109.273 17.6769 109.077C17.3455 108.881 16.9839 108.783 16.5919 108.783C16.1999 108.783 15.8405 108.879 15.5139 109.07C15.1872 109.262 14.9165 109.521 14.7019 109.847C14.4919 110.169 14.3612 110.531 14.3099 110.932ZM27.8105 114.929H26.6205L24.2755 107.929H25.4235L27.2295 113.27L29.0145 107.929H30.2255L32.0175 113.27L33.8025 107.929H34.9645L32.6195 114.929H31.4225L29.6095 109.539L27.8105 114.929ZM38.9044 115.111C38.2604 115.111 37.6724 114.946 37.1404 114.614C36.613 114.283 36.1907 113.84 35.8734 113.284C35.5607 112.724 35.4044 112.106 35.4044 111.429C35.4044 110.916 35.4954 110.438 35.6774 109.994C35.8594 109.546 36.109 109.154 36.4264 108.818C36.7484 108.478 37.1217 108.212 37.5464 108.02C37.971 107.829 38.4237 107.733 38.9044 107.733C39.5484 107.733 40.134 107.899 40.6614 108.23C41.1934 108.562 41.6157 109.007 41.9284 109.567C42.2457 110.127 42.4044 110.748 42.4044 111.429C42.4044 111.938 42.3134 112.414 42.1314 112.857C41.9494 113.301 41.6974 113.693 41.3754 114.033C41.058 114.369 40.687 114.633 40.2624 114.824C39.8424 115.016 39.3897 115.111 38.9044 115.111ZM38.9044 113.935C39.343 113.935 39.7374 113.821 40.0874 113.592C40.442 113.359 40.7197 113.053 40.9204 112.675C41.1257 112.293 41.2284 111.877 41.2284 111.429C41.2284 110.972 41.1234 110.552 40.9134 110.169C40.708 109.787 40.4304 109.481 40.0804 109.252C39.7304 109.024 39.3384 108.909 38.9044 108.909C38.4657 108.909 38.0714 109.026 37.7214 109.259C37.3714 109.488 37.0937 109.794 36.8884 110.176C36.683 110.559 36.5804 110.977 36.5804 111.429C36.5804 111.896 36.6854 112.321 36.8954 112.703C37.1054 113.081 37.3877 113.382 37.7424 113.606C38.097 113.826 38.4844 113.935 38.9044 113.935ZM43.5627 114.929V107.929H44.7387V108.804C44.986 108.478 45.2987 108.219 45.6767 108.027C46.0547 107.831 46.4653 107.733 46.9087 107.733C47.1793 107.733 47.4407 107.768 47.6927 107.838L47.2167 109.014C47.0253 108.954 46.8387 108.923 46.6567 108.923C46.3067 108.923 45.9847 109.01 45.6907 109.182C45.4013 109.35 45.1703 109.579 44.9977 109.868C44.825 110.158 44.7387 110.48 44.7387 110.834V114.929H43.5627ZM48.4982 114.929V104.429H49.6742V114.929H48.4982ZM56.9223 104.429H58.0983V114.929H56.9223V113.739C56.6843 114.15 56.3646 114.481 55.9633 114.733C55.5619 114.985 55.0906 115.111 54.5493 115.111C54.0406 115.111 53.5646 115.016 53.1213 114.824C52.6779 114.633 52.2859 114.369 51.9453 114.033C51.6093 113.693 51.3456 113.301 51.1543 112.857C50.9629 112.414 50.8673 111.938 50.8673 111.429C50.8673 110.921 50.9629 110.445 51.1543 110.001C51.3456 109.553 51.6093 109.161 51.9453 108.825C52.2859 108.485 52.6779 108.219 53.1213 108.027C53.5646 107.836 54.0406 107.74 54.5493 107.74C55.0906 107.74 55.5619 107.866 55.9633 108.118C56.3646 108.37 56.6843 108.702 56.9223 109.112V104.429ZM54.5633 113.97C55.0253 113.97 55.4243 113.858 55.7603 113.634C56.1009 113.406 56.3623 113.098 56.5443 112.71C56.7309 112.323 56.8243 111.896 56.8243 111.429C56.8243 110.953 56.7309 110.524 56.5443 110.141C56.3576 109.754 56.0939 109.448 55.7533 109.224C55.4173 108.996 55.0206 108.881 54.5633 108.881C54.1013 108.881 53.6813 108.996 53.3033 109.224C52.9299 109.453 52.6313 109.761 52.4073 110.148C52.1833 110.531 52.0713 110.958 52.0713 111.429C52.0713 111.901 52.1856 112.33 52.4143 112.717C52.6429 113.1 52.9463 113.406 53.3243 113.634C53.7023 113.858 54.1153 113.97 54.5633 113.97ZM61.9125 115.062C61.5345 115.048 61.1658 114.978 60.8065 114.852C60.4518 114.722 60.1392 114.547 59.8685 114.327C59.6025 114.103 59.4088 113.847 59.2875 113.557L60.2955 113.123C60.3655 113.282 60.4915 113.431 60.6735 113.571C60.8555 113.711 61.0655 113.823 61.3035 113.907C61.5415 113.991 61.7818 114.033 62.0245 114.033C62.2812 114.033 62.5215 113.994 62.7455 113.914C62.9695 113.835 63.1515 113.718 63.2915 113.564C63.4362 113.406 63.5085 113.217 63.5085 112.997C63.5085 112.764 63.4292 112.582 63.2705 112.451C63.1165 112.316 62.9205 112.211 62.6825 112.136C62.4492 112.057 62.2112 111.982 61.9685 111.912C61.4878 111.791 61.0585 111.646 60.6805 111.478C60.3025 111.306 60.0038 111.089 59.7845 110.827C59.5698 110.561 59.4625 110.223 59.4625 109.812C59.4625 109.378 59.5815 109.003 59.8195 108.685C60.0622 108.368 60.3795 108.123 60.7715 107.95C61.1635 107.778 61.5835 107.691 62.0315 107.691C62.5962 107.691 63.1118 107.813 63.5785 108.055C64.0452 108.298 64.3928 108.627 64.6215 109.042L63.6765 109.595C63.5972 109.427 63.4758 109.28 63.3125 109.154C63.1492 109.024 62.9625 108.921 62.7525 108.846C62.5425 108.772 62.3278 108.732 62.1085 108.727C61.8378 108.718 61.5835 108.753 61.3455 108.832C61.1122 108.912 60.9232 109.033 60.7785 109.196C60.6385 109.355 60.5685 109.553 60.5685 109.791C60.5685 110.025 60.6432 110.202 60.7925 110.323C60.9465 110.445 61.1448 110.543 61.3875 110.617C61.6348 110.687 61.9032 110.769 62.1925 110.862C62.6172 110.998 63.0138 111.154 63.3825 111.331C63.7512 111.509 64.0475 111.73 64.2715 111.996C64.5002 112.262 64.6122 112.591 64.6075 112.983C64.6075 113.413 64.4792 113.788 64.2225 114.11C63.9658 114.428 63.6322 114.67 63.2215 114.838C62.8155 115.006 62.3792 115.081 61.9125 115.062ZM69.1701 114.929V107.929H70.3461V108.804C70.5934 108.478 70.9037 108.219 71.2771 108.027C71.6551 107.831 72.0657 107.733 72.5091 107.733C73.0271 107.733 73.5007 107.859 73.9301 108.111C74.3594 108.363 74.6977 108.697 74.9451 109.112C75.1924 108.697 75.5284 108.363 75.9531 108.111C76.3824 107.859 76.8537 107.733 77.3671 107.733C77.8944 107.733 78.3727 107.862 78.8021 108.118C79.2314 108.37 79.5721 108.711 79.8241 109.14C80.0807 109.57 80.2091 110.048 80.2091 110.575V114.929H79.0331V110.855C79.0331 110.51 78.9491 110.19 78.7811 109.896C78.6131 109.602 78.3867 109.367 78.1021 109.189C77.8174 109.012 77.5024 108.923 77.1571 108.923C76.8117 108.923 76.4967 109.007 76.2121 109.175C75.9274 109.339 75.7011 109.567 75.5331 109.861C75.3651 110.151 75.2811 110.482 75.2811 110.855V114.929H74.1051V110.855C74.1051 110.482 74.0211 110.151 73.8531 109.861C73.6851 109.567 73.4564 109.339 73.1671 109.175C72.8824 109.007 72.5674 108.923 72.2221 108.923C71.8814 108.923 71.5664 109.012 71.2771 109.189C70.9924 109.367 70.7661 109.602 70.5981 109.896C70.4301 110.19 70.3461 110.51 70.3461 110.855V114.929H69.1701ZM84.5548 115.111C83.9108 115.111 83.3228 114.946 82.7908 114.614C82.2634 114.283 81.8411 113.84 81.5238 113.284C81.2111 112.724 81.0548 112.106 81.0548 111.429C81.0548 110.916 81.1458 110.438 81.3278 109.994C81.5098 109.546 81.7594 109.154 82.0768 108.818C82.3988 108.478 82.7721 108.212 83.1968 108.02C83.6214 107.829 84.0741 107.733 84.5548 107.733C85.1988 107.733 85.7844 107.899 86.3118 108.23C86.8438 108.562 87.2661 109.007 87.5788 109.567C87.8961 110.127 88.0548 110.748 88.0548 111.429C88.0548 111.938 87.9638 112.414 87.7818 112.857C87.5998 113.301 87.3478 113.693 87.0258 114.033C86.7084 114.369 86.3374 114.633 85.9128 114.824C85.4928 115.016 85.0401 115.111 84.5548 115.111ZM84.5548 113.935C84.9934 113.935 85.3878 113.821 85.7378 113.592C86.0924 113.359 86.3701 113.053 86.5708 112.675C86.7761 112.293 86.8788 111.877 86.8788 111.429C86.8788 110.972 86.7738 110.552 86.5638 110.169C86.3584 109.787 86.0808 109.481 85.7308 109.252C85.3808 109.024 84.9888 108.909 84.5548 108.909C84.1161 108.909 83.7218 109.026 83.3718 109.259C83.0218 109.488 82.7441 109.794 82.5388 110.176C82.3334 110.559 82.2308 110.977 82.2308 111.429C82.2308 111.896 82.3358 112.321 82.5458 112.703C82.7558 113.081 83.0381 113.382 83.3928 113.606C83.7474 113.826 84.1348 113.935 84.5548 113.935ZM91.3754 115.062C90.9974 115.048 90.6287 114.978 90.2694 114.852C89.9147 114.722 89.6021 114.547 89.3314 114.327C89.0654 114.103 88.8717 113.847 88.7504 113.557L89.7584 113.123C89.8284 113.282 89.9544 113.431 90.1364 113.571C90.3184 113.711 90.5284 113.823 90.7664 113.907C91.0044 113.991 91.2447 114.033 91.4874 114.033C91.7441 114.033 91.9844 113.994 92.2084 113.914C92.4324 113.835 92.6144 113.718 92.7544 113.564C92.8991 113.406 92.9714 113.217 92.9714 112.997C92.9714 112.764 92.8921 112.582 92.7334 112.451C92.5794 112.316 92.3834 112.211 92.1454 112.136C91.9121 112.057 91.6741 111.982 91.4314 111.912C90.9507 111.791 90.5214 111.646 90.1434 111.478C89.7654 111.306 89.4667 111.089 89.2474 110.827C89.0327 110.561 88.9254 110.223 88.9254 109.812C88.9254 109.378 89.0444 109.003 89.2824 108.685C89.5251 108.368 89.8424 108.123 90.2344 107.95C90.6264 107.778 91.0464 107.691 91.4944 107.691C92.0591 107.691 92.5747 107.813 93.0414 108.055C93.5081 108.298 93.8557 108.627 94.0844 109.042L93.1394 109.595C93.0601 109.427 92.9387 109.28 92.7754 109.154C92.6121 109.024 92.4254 108.921 92.2154 108.846C92.0054 108.772 91.7907 108.732 91.5714 108.727C91.3007 108.718 91.0464 108.753 90.8084 108.832C90.5751 108.912 90.3861 109.033 90.2414 109.196C90.1014 109.355 90.0314 109.553 90.0314 109.791C90.0314 110.025 90.1061 110.202 90.2554 110.323C90.4094 110.445 90.6077 110.543 90.8504 110.617C91.0977 110.687 91.3661 110.769 91.6554 110.862C92.0801 110.998 92.4767 111.154 92.8454 111.331C93.2141 111.509 93.5104 111.73 93.7344 111.996C93.9631 112.262 94.0751 112.591 94.0704 112.983C94.0704 113.413 93.9421 113.788 93.6854 114.11C93.4287 114.428 93.0951 114.67 92.6844 114.838C92.2784 115.006 91.8421 115.081 91.3754 115.062ZM98.8957 109.105H97.3067L97.2997 114.929H96.1237L96.1307 109.105H94.9267V107.929H96.1307L96.1237 105.731H97.2997L97.3067 107.929H98.8957V109.105ZM107.154 114.929H105.649L103.094 107.915H104.347L106.398 113.564L108.449 107.915H109.702L107.154 114.929ZM110.842 107.929H112.018V114.929H110.842V107.929ZM111.444 106.788C111.257 106.788 111.101 106.728 110.975 106.606C110.849 106.485 110.786 106.333 110.786 106.151C110.786 105.969 110.849 105.818 110.975 105.696C111.101 105.575 111.255 105.514 111.437 105.514C111.619 105.514 111.773 105.575 111.899 105.696C112.025 105.818 112.088 105.969 112.088 106.151C112.088 106.333 112.025 106.485 111.899 106.606C111.778 106.728 111.626 106.788 111.444 106.788ZM115.766 115.062C115.388 115.048 115.019 114.978 114.66 114.852C114.305 114.722 113.993 114.547 113.722 114.327C113.456 114.103 113.262 113.847 113.141 113.557L114.149 113.123C114.219 113.282 114.345 113.431 114.527 113.571C114.709 113.711 114.919 113.823 115.157 113.907C115.395 113.991 115.635 114.033 115.878 114.033C116.135 114.033 116.375 113.994 116.599 113.914C116.823 113.835 117.005 113.718 117.145 113.564C117.29 113.406 117.362 113.217 117.362 112.997C117.362 112.764 117.283 112.582 117.124 112.451C116.97 112.316 116.774 112.211 116.536 112.136C116.303 112.057 116.065 111.982 115.822 111.912C115.341 111.791 114.912 111.646 114.534 111.478C114.156 111.306 113.857 111.089 113.638 110.827C113.423 110.561 113.316 110.223 113.316 109.812C113.316 109.378 113.435 109.003 113.673 108.685C113.916 108.368 114.233 108.123 114.625 107.95C115.017 107.778 115.437 107.691 115.885 107.691C116.45 107.691 116.965 107.813 117.432 108.055C117.899 108.298 118.246 108.627 118.475 109.042L117.53 109.595C117.451 109.427 117.329 109.28 117.166 109.154C117.003 109.024 116.816 108.921 116.606 108.846C116.396 108.772 116.181 108.732 115.962 108.727C115.691 108.718 115.437 108.753 115.199 108.832C114.966 108.912 114.777 109.033 114.632 109.196C114.492 109.355 114.422 109.553 114.422 109.791C114.422 110.025 114.497 110.202 114.646 110.323C114.8 110.445 114.998 110.543 115.241 110.617C115.488 110.687 115.757 110.769 116.046 110.862C116.471 110.998 116.867 111.154 117.236 111.331C117.605 111.509 117.901 111.73 118.125 111.996C118.354 112.262 118.466 112.591 118.461 112.983C118.461 113.413 118.333 113.788 118.076 114.11C117.819 114.428 117.486 114.67 117.075 114.838C116.669 115.006 116.233 115.081 115.766 115.062ZM119.565 107.929H120.741V114.929H119.565V107.929ZM120.167 106.788C119.98 106.788 119.824 106.728 119.698 106.606C119.572 106.485 119.509 106.333 119.509 106.151C119.509 105.969 119.572 105.818 119.698 105.696C119.824 105.575 119.978 105.514 120.16 105.514C120.342 105.514 120.496 105.575 120.622 105.696C120.748 105.818 120.811 105.969 120.811 106.151C120.811 106.333 120.748 106.485 120.622 106.606C120.5 106.728 120.349 106.788 120.167 106.788ZM126.048 109.105H124.459L124.452 114.929H123.276L123.283 109.105H122.079V107.929H123.283L123.276 105.731H124.452L124.459 107.929H126.048V109.105ZM130.205 115.111C129.561 115.111 128.973 114.946 128.441 114.614C127.914 114.283 127.491 113.84 127.174 113.284C126.861 112.724 126.705 112.106 126.705 111.429C126.705 110.916 126.796 110.438 126.978 109.994C127.16 109.546 127.41 109.154 127.727 108.818C128.049 108.478 128.422 108.212 128.847 108.02C129.272 107.829 129.724 107.733 130.205 107.733C130.732 107.733 131.215 107.841 131.654 108.055C132.097 108.265 132.475 108.559 132.788 108.937C133.105 109.315 133.341 109.754 133.495 110.253C133.654 110.753 133.712 111.287 133.67 111.856H127.958C128.014 112.253 128.145 112.608 128.35 112.92C128.555 113.228 128.817 113.473 129.134 113.655C129.456 113.837 129.813 113.931 130.205 113.935C130.625 113.935 131.005 113.828 131.346 113.613C131.687 113.394 131.962 113.095 132.172 112.717L133.369 112.997C133.089 113.618 132.667 114.127 132.102 114.523C131.537 114.915 130.905 115.111 130.205 115.111ZM127.923 110.932H132.487C132.45 110.54 132.324 110.183 132.109 109.861C131.894 109.535 131.621 109.273 131.29 109.077C130.959 108.881 130.597 108.783 130.205 108.783C129.813 108.783 129.454 108.879 129.127 109.07C128.8 109.262 128.53 109.521 128.315 109.847C128.105 110.169 127.974 110.531 127.923 110.932ZM140.444 104.429H141.62V114.929H140.444V113.739C140.206 114.15 139.886 114.481 139.485 114.733C139.083 114.985 138.612 115.111 138.071 115.111C137.562 115.111 137.086 115.016 136.643 114.824C136.199 114.633 135.807 114.369 135.467 114.033C135.131 113.693 134.867 113.301 134.676 112.857C134.484 112.414 134.389 111.938 134.389 111.429C134.389 110.921 134.484 110.445 134.676 110.001C134.867 109.553 135.131 109.161 135.467 108.825C135.807 108.485 136.199 108.219 136.643 108.027C137.086 107.836 137.562 107.74 138.071 107.74C138.612 107.74 139.083 107.866 139.485 108.118C139.886 108.37 140.206 108.702 140.444 109.112V104.429ZM138.085 113.97C138.547 113.97 138.946 113.858 139.282 113.634C139.622 113.406 139.884 113.098 140.066 112.71C140.252 112.323 140.346 111.896 140.346 111.429C140.346 110.953 140.252 110.524 140.066 110.141C139.879 109.754 139.615 109.448 139.275 109.224C138.939 108.996 138.542 108.881 138.085 108.881C137.623 108.881 137.203 108.996 136.825 109.224C136.451 109.453 136.153 109.761 135.929 110.148C135.705 110.531 135.593 110.958 135.593 111.429C135.593 111.901 135.707 112.33 135.936 112.717C136.164 113.1 136.468 113.406 136.846 113.634C137.224 113.858 137.637 113.97 138.085 113.97ZM152.29 107.929H153.466V114.929H152.29L152.241 113.746C152.022 114.152 151.719 114.481 151.331 114.733C150.949 114.985 150.491 115.111 149.959 115.111C149.446 115.111 148.965 115.016 148.517 114.824C148.069 114.628 147.673 114.36 147.327 114.019C146.987 113.674 146.721 113.277 146.529 112.829C146.338 112.381 146.242 111.898 146.242 111.38C146.242 110.881 146.336 110.41 146.522 109.966C146.709 109.523 146.968 109.136 147.299 108.804C147.635 108.468 148.023 108.207 148.461 108.02C148.9 107.829 149.371 107.733 149.875 107.733C150.426 107.733 150.909 107.864 151.324 108.125C151.74 108.382 152.076 108.716 152.332 109.126L152.29 107.929ZM149.938 113.97C150.4 113.97 150.799 113.858 151.135 113.634C151.476 113.406 151.737 113.098 151.919 112.71C152.106 112.323 152.199 111.896 152.199 111.429C152.199 110.953 152.106 110.524 151.919 110.141C151.733 109.754 151.469 109.448 151.128 109.224C150.792 108.996 150.396 108.881 149.938 108.881C149.476 108.881 149.056 108.996 148.678 109.224C148.3 109.453 147.999 109.761 147.775 110.148C147.556 110.531 147.446 110.958 147.446 111.429C147.446 111.901 147.561 112.33 147.789 112.717C148.018 113.1 148.321 113.406 148.699 113.634C149.077 113.858 149.49 113.97 149.938 113.97ZM154.865 114.929V107.929H156.041V108.804C156.289 108.478 156.601 108.219 156.979 108.027C157.357 107.831 157.768 107.733 158.211 107.733C158.482 107.733 158.743 107.768 158.995 107.838L158.519 109.014C158.328 108.954 158.141 108.923 157.959 108.923C157.609 108.923 157.287 109.01 156.993 109.182C156.704 109.35 156.473 109.579 156.3 109.868C156.128 110.158 156.041 110.48 156.041 110.834V114.929H154.865ZM164.323 113.081L165.373 113.648C165.056 114.092 164.652 114.446 164.162 114.712C163.677 114.978 163.149 115.111 162.58 115.111C161.936 115.111 161.348 114.946 160.816 114.614C160.289 114.283 159.866 113.84 159.549 113.284C159.236 112.724 159.08 112.106 159.08 111.429C159.08 110.916 159.171 110.438 159.353 109.994C159.535 109.546 159.785 109.154 160.102 108.818C160.424 108.478 160.797 108.212 161.222 108.02C161.647 107.829 162.099 107.733 162.58 107.733C163.149 107.733 163.677 107.866 164.162 108.132C164.652 108.398 165.056 108.755 165.373 109.203L164.323 109.77C164.099 109.495 163.833 109.283 163.525 109.133C163.217 108.984 162.902 108.909 162.58 108.909C162.146 108.909 161.752 109.026 161.397 109.259C161.047 109.488 160.769 109.794 160.564 110.176C160.359 110.559 160.256 110.977 160.256 111.429C160.256 111.882 160.359 112.3 160.564 112.682C160.774 113.06 161.054 113.364 161.404 113.592C161.759 113.821 162.151 113.935 162.58 113.935C162.925 113.935 163.25 113.856 163.553 113.697C163.856 113.539 164.113 113.333 164.323 113.081ZM172.702 110.575V114.929H171.526V110.834C171.526 110.48 171.439 110.158 171.267 109.868C171.094 109.579 170.863 109.35 170.574 109.182C170.284 109.01 169.962 108.923 169.608 108.923C169.258 108.923 168.936 109.01 168.642 109.182C168.352 109.35 168.121 109.579 167.949 109.868C167.776 110.158 167.69 110.48 167.69 110.834V114.929H166.514V104.429H167.69V108.804C167.937 108.478 168.25 108.219 168.628 108.027C169.006 107.831 169.416 107.733 169.86 107.733C170.382 107.733 170.858 107.862 171.288 108.118C171.722 108.37 172.065 108.711 172.317 109.14C172.573 109.57 172.702 110.048 172.702 110.575ZM174.102 107.929H175.278V114.929H174.102V107.929ZM174.704 106.788C174.517 106.788 174.361 106.728 174.235 106.606C174.109 106.485 174.046 106.333 174.046 106.151C174.046 105.969 174.109 105.818 174.235 105.696C174.361 105.575 174.515 105.514 174.697 105.514C174.879 105.514 175.033 105.575 175.159 105.696C175.285 105.818 175.348 105.969 175.348 106.151C175.348 106.333 175.285 106.485 175.159 106.606C175.037 106.728 174.886 106.788 174.704 106.788ZM180.585 109.105H178.996L178.989 114.929H177.813L177.82 109.105H176.616V107.929H177.82L177.813 105.731H178.989L178.996 107.929H180.585V109.105ZM184.742 115.111C184.098 115.111 183.51 114.946 182.978 114.614C182.451 114.283 182.029 113.84 181.711 113.284C181.399 112.724 181.242 112.106 181.242 111.429C181.242 110.916 181.333 110.438 181.515 109.994C181.697 109.546 181.947 109.154 182.264 108.818C182.586 108.478 182.96 108.212 183.384 108.02C183.809 107.829 184.262 107.733 184.742 107.733C185.27 107.733 185.753 107.841 186.191 108.055C186.635 108.265 187.013 108.559 187.325 108.937C187.643 109.315 187.878 109.754 188.032 110.253C188.191 110.753 188.249 111.287 188.207 111.856H182.495C182.551 112.253 182.682 112.608 182.887 112.92C183.093 113.228 183.354 113.473 183.671 113.655C183.993 113.837 184.35 113.931 184.742 113.935C185.162 113.935 185.543 113.828 185.883 113.613C186.224 113.394 186.499 113.095 186.709 112.717L187.906 112.997C187.626 113.618 187.204 114.127 186.639 114.523C186.075 114.915 185.442 115.111 184.742 115.111ZM182.46 110.932H187.024C186.987 110.54 186.861 110.183 186.646 109.861C186.432 109.535 186.159 109.273 185.827 109.077C185.496 108.881 185.134 108.783 184.742 108.783C184.35 108.783 183.991 108.879 183.664 109.07C183.338 109.262 183.067 109.521 182.852 109.847C182.642 110.169 182.512 110.531 182.46 110.932ZM194.169 113.081L195.219 113.648C194.902 114.092 194.498 114.446 194.008 114.712C193.523 114.978 192.995 115.111 192.426 115.111C191.782 115.111 191.194 114.946 190.662 114.614C190.135 114.283 189.712 113.84 189.395 113.284C189.082 112.724 188.926 112.106 188.926 111.429C188.926 110.916 189.017 110.438 189.199 109.994C189.381 109.546 189.631 109.154 189.948 108.818C190.27 108.478 190.643 108.212 191.068 108.02C191.493 107.829 191.945 107.733 192.426 107.733C192.995 107.733 193.523 107.866 194.008 108.132C194.498 108.398 194.902 108.755 195.219 109.203L194.169 109.77C193.945 109.495 193.679 109.283 193.371 109.133C193.063 108.984 192.748 108.909 192.426 108.909C191.992 108.909 191.598 109.026 191.243 109.259C190.893 109.488 190.615 109.794 190.41 110.176C190.205 110.559 190.102 110.977 190.102 111.429C190.102 111.882 190.205 112.3 190.41 112.682C190.62 113.06 190.9 113.364 191.25 113.592C191.605 113.821 191.997 113.935 192.426 113.935C192.771 113.935 193.096 113.856 193.399 113.697C193.702 113.539 193.959 113.333 194.169 113.081ZM200.109 109.105H198.52L198.513 114.929H197.337L197.344 109.105H196.14V107.929H197.344L197.337 105.731H198.513L198.52 107.929H200.109V109.105ZM201.083 112.269V107.929H202.259V112.01C202.259 112.365 202.346 112.687 202.518 112.976C202.691 113.266 202.922 113.497 203.211 113.669C203.505 113.837 203.827 113.921 204.177 113.921C204.532 113.921 204.852 113.837 205.136 113.669C205.426 113.497 205.657 113.266 205.829 112.976C206.002 112.687 206.088 112.365 206.088 112.01V107.929H207.264L207.271 114.929H206.095L206.088 114.04C205.841 114.367 205.528 114.628 205.15 114.824C204.772 115.016 204.364 115.111 203.925 115.111C203.403 115.111 202.924 114.985 202.49 114.733C202.061 114.477 201.718 114.134 201.461 113.704C201.209 113.275 201.083 112.797 201.083 112.269ZM208.678 114.929V107.929H209.854V108.804C210.101 108.478 210.414 108.219 210.792 108.027C211.17 107.831 211.581 107.733 212.024 107.733C212.295 107.733 212.556 107.768 212.808 107.838L212.332 109.014C212.141 108.954 211.954 108.923 211.772 108.923C211.422 108.923 211.1 109.01 210.806 109.182C210.517 109.35 210.286 109.579 210.113 109.868C209.94 110.158 209.854 110.48 209.854 110.834V114.929H208.678ZM216.393 115.111C215.749 115.111 215.161 114.946 214.629 114.614C214.101 114.283 213.679 113.84 213.362 113.284C213.049 112.724 212.893 112.106 212.893 111.429C212.893 110.916 212.984 110.438 213.166 109.994C213.348 109.546 213.597 109.154 213.915 108.818C214.237 108.478 214.61 108.212 215.035 108.02C215.459 107.829 215.912 107.733 216.393 107.733C216.92 107.733 217.403 107.841 217.842 108.055C218.285 108.265 218.663 108.559 218.976 108.937C219.293 109.315 219.529 109.754 219.683 110.253C219.841 110.753 219.9 111.287 219.858 111.856H214.146C214.202 112.253 214.332 112.608 214.538 112.92C214.743 113.228 215.004 113.473 215.322 113.655C215.644 113.837 216.001 113.931 216.393 113.935C216.813 113.935 217.193 113.828 217.534 113.613C217.874 113.394 218.15 113.095 218.36 112.717L219.557 112.997C219.277 113.618 218.854 114.127 218.29 114.523C217.725 114.915 217.093 115.111 216.393 115.111ZM214.111 110.932H218.675C218.637 110.54 218.511 110.183 218.297 109.861C218.082 109.535 217.809 109.273 217.478 109.077C217.146 108.881 216.785 108.783 216.393 108.783C216.001 108.783 215.641 108.879 215.315 109.07C214.988 109.262 214.717 109.521 214.503 109.847C214.293 110.169 214.162 110.531 214.111 110.932ZM225.672 118.429H224.496V107.929H225.672V109.126C225.91 108.716 226.228 108.384 226.624 108.132C227.021 107.876 227.492 107.747 228.038 107.747C228.547 107.747 229.023 107.843 229.466 108.034C229.914 108.226 230.306 108.492 230.642 108.832C230.978 109.168 231.242 109.558 231.433 110.001C231.625 110.445 231.72 110.921 231.72 111.429C231.72 111.938 231.625 112.416 231.433 112.864C231.242 113.312 230.978 113.707 230.642 114.047C230.306 114.383 229.914 114.647 229.466 114.838C229.023 115.03 228.547 115.125 228.038 115.125C227.492 115.125 227.021 114.999 226.624 114.747C226.228 114.491 225.91 114.157 225.672 113.746V118.429ZM228.024 108.888C227.572 108.888 227.175 109.003 226.834 109.231C226.494 109.46 226.23 109.766 226.043 110.148C225.861 110.531 225.77 110.958 225.77 111.429C225.77 111.896 225.861 112.323 226.043 112.71C226.23 113.098 226.491 113.406 226.827 113.634C227.168 113.863 227.567 113.977 228.024 113.977C228.477 113.977 228.892 113.865 229.27 113.641C229.648 113.413 229.952 113.107 230.18 112.724C230.409 112.337 230.523 111.905 230.523 111.429C230.523 110.963 230.411 110.538 230.187 110.155C229.963 109.768 229.662 109.46 229.284 109.231C228.906 109.003 228.486 108.888 228.024 108.888ZM232.822 114.929V104.429H233.998V114.929H232.822ZM241.239 107.929H242.415V114.929H241.239L241.19 113.746C240.971 114.152 240.668 114.481 240.28 114.733C239.898 114.985 239.44 115.111 238.908 115.111C238.395 115.111 237.914 115.016 237.466 114.824C237.018 114.628 236.622 114.36 236.276 114.019C235.936 113.674 235.67 113.277 235.478 112.829C235.287 112.381 235.191 111.898 235.191 111.38C235.191 110.881 235.285 110.41 235.471 109.966C235.658 109.523 235.917 109.136 236.248 108.804C236.584 108.468 236.972 108.207 237.41 108.02C237.849 107.829 238.32 107.733 238.824 107.733C239.375 107.733 239.858 107.864 240.273 108.125C240.689 108.382 241.025 108.716 241.281 109.126L241.239 107.929ZM238.887 113.97C239.349 113.97 239.748 113.858 240.084 113.634C240.425 113.406 240.686 113.098 240.868 112.71C241.055 112.323 241.148 111.896 241.148 111.429C241.148 110.953 241.055 110.524 240.868 110.141C240.682 109.754 240.418 109.448 240.077 109.224C239.741 108.996 239.345 108.881 238.887 108.881C238.425 108.881 238.005 108.996 237.627 109.224C237.249 109.453 236.948 109.761 236.724 110.148C236.505 110.531 236.395 110.958 236.395 111.429C236.395 111.901 236.51 112.33 236.738 112.717C236.967 113.1 237.27 113.406 237.648 113.634C238.026 113.858 238.439 113.97 238.887 113.97ZM247.441 109.105H245.852L245.845 114.929H244.669L244.676 109.105H243.472V107.929H244.676L244.669 105.731H245.845L245.852 107.929H247.441V109.105ZM250.284 106.2V107.929H252.335V109.105H250.284V114.929H249.108V109.105H248.205V107.929H249.108V106.2C249.108 105.841 249.195 105.517 249.367 105.227C249.545 104.933 249.78 104.7 250.074 104.527C250.373 104.35 250.7 104.261 251.054 104.261C251.316 104.261 251.57 104.315 251.817 104.422C252.065 104.525 252.284 104.679 252.475 104.884L251.635 105.717C251.57 105.629 251.484 105.561 251.376 105.514C251.274 105.463 251.166 105.437 251.054 105.437C250.844 105.437 250.662 105.512 250.508 105.661C250.359 105.811 250.284 105.99 250.284 106.2ZM256.383 115.111C255.739 115.111 255.151 114.946 254.619 114.614C254.092 114.283 253.669 113.84 253.352 113.284C253.039 112.724 252.883 112.106 252.883 111.429C252.883 110.916 252.974 110.438 253.156 109.994C253.338 109.546 253.588 109.154 253.905 108.818C254.227 108.478 254.6 108.212 255.025 108.02C255.45 107.829 255.902 107.733 256.383 107.733C257.027 107.733 257.613 107.899 258.14 108.23C258.672 108.562 259.094 109.007 259.407 109.567C259.724 110.127 259.883 110.748 259.883 111.429C259.883 111.938 259.792 112.414 259.61 112.857C259.428 113.301 259.176 113.693 258.854 114.033C258.537 114.369 258.166 114.633 257.741 114.824C257.321 115.016 256.868 115.111 256.383 115.111ZM256.383 113.935C256.822 113.935 257.216 113.821 257.566 113.592C257.921 113.359 258.198 113.053 258.399 112.675C258.604 112.293 258.707 111.877 258.707 111.429C258.707 110.972 258.602 110.552 258.392 110.169C258.187 109.787 257.909 109.481 257.559 109.252C257.209 109.024 256.817 108.909 256.383 108.909C255.944 108.909 255.55 109.026 255.2 109.259C254.85 109.488 254.572 109.794 254.367 110.176C254.162 110.559 254.059 110.977 254.059 111.429C254.059 111.896 254.164 112.321 254.374 112.703C254.584 113.081 254.866 113.382 255.221 113.606C255.576 113.826 255.963 113.935 256.383 113.935ZM261.041 114.929V107.929H262.217V108.804C262.465 108.478 262.777 108.219 263.155 108.027C263.533 107.831 263.944 107.733 264.387 107.733C264.658 107.733 264.919 107.768 265.171 107.838L264.695 109.014C264.504 108.954 264.317 108.923 264.135 108.923C263.785 108.923 263.463 109.01 263.169 109.182C262.88 109.35 262.649 109.579 262.476 109.868C262.304 110.158 262.217 110.48 262.217 110.834V114.929H261.041ZM266.059 114.929V107.929H267.235V108.804C267.482 108.478 267.792 108.219 268.166 108.027C268.544 107.831 268.954 107.733 269.398 107.733C269.916 107.733 270.389 107.859 270.819 108.111C271.248 108.363 271.586 108.697 271.834 109.112C272.081 108.697 272.417 108.363 272.842 108.111C273.271 107.859 273.742 107.733 274.256 107.733C274.783 107.733 275.261 107.862 275.691 108.118C276.12 108.37 276.461 108.711 276.713 109.14C276.969 109.57 277.098 110.048 277.098 110.575V114.929H275.922V110.855C275.922 110.51 275.838 110.19 275.67 109.896C275.502 109.602 275.275 109.367 274.991 109.189C274.706 109.012 274.391 108.923 274.046 108.923C273.7 108.923 273.385 109.007 273.101 109.175C272.816 109.339 272.59 109.567 272.422 109.861C272.254 110.151 272.17 110.482 272.17 110.855V114.929H270.994V110.855C270.994 110.482 270.91 110.151 270.742 109.861C270.574 109.567 270.345 109.339 270.056 109.175C269.771 109.007 269.456 108.923 269.111 108.923C268.77 108.923 268.455 109.012 268.166 109.189C267.881 109.367 267.655 109.602 267.487 109.896C267.319 110.19 267.235 110.51 267.235 110.855V114.929H266.059Z" fill="#616161"/>
<defs>
<clipPath id="clip0_2194_407">
<rect width="176" height="83.2369" fill="white" transform="translate(51)"/>
</clipPath>
</defs>
</svg>
