<svg width="20" height="21" viewBox="0 0 20 21" fill="none" xmlns="http://www.w3.org/2000/svg">
<mask id="mask0_2374_109" style="mask-type:luminance" maskUnits="userSpaceOnUse" x="1" y="2" width="17" height="17">
<path fill-rule="evenodd" clip-rule="evenodd" d="M1.66675 2.16675H17.8974V18.3976H1.66675V2.16675Z" fill="white"/>
</mask>
<g mask="url(#mask0_2374_109)">
<path fill-rule="evenodd" clip-rule="evenodd" d="M9.78234 3.41675C5.9965 3.41675 2.9165 6.49591 2.9165 10.2817C2.9165 14.0676 5.9965 17.1476 9.78234 17.1476C13.5673 17.1476 16.6473 14.0676 16.6473 10.2817C16.6473 6.49591 13.5673 3.41675 9.78234 3.41675ZM9.78234 18.3976C5.30734 18.3976 1.6665 14.7567 1.6665 10.2817C1.6665 5.80675 5.30734 2.16675 9.78234 2.16675C14.2573 2.16675 17.8973 5.80675 17.8973 10.2817C17.8973 14.7567 14.2573 18.3976 9.78234 18.3976Z" fill="#757575"/>
</g>
<mask id="mask1_2374_109" style="mask-type:luminance" maskUnits="userSpaceOnUse" x="14" y="15" width="5" height="5">
<path fill-rule="evenodd" clip-rule="evenodd" d="M14.3667 15.2559H18.5534V19.4348H14.3667V15.2559Z" fill="white"/>
</mask>
<g mask="url(#mask1_2374_109)">
<path fill-rule="evenodd" clip-rule="evenodd" d="M17.9286 19.4348C17.7694 19.4348 17.6094 19.374 17.4869 19.2523L14.5502 16.324C14.3061 16.0798 14.3052 15.684 14.5494 15.4398C14.7927 15.194 15.1886 15.1957 15.4336 15.4382L18.3702 18.3673C18.6144 18.6115 18.6152 19.0065 18.3711 19.2507C18.2494 19.374 18.0886 19.4348 17.9286 19.4348Z" fill="#757575"/>
</g>
</svg>
